<svg width="216" height="225" viewBox="0 0 216 225" fill="none" xmlns="http://www.w3.org/2000/svg">
<g opacity="0.8" clip-path="url(#clip0_2234_9590)">
<path d="M34.0829 163.716C35.2502 164.613 35.4507 166.164 34.5507 167.335C33.6506 168.506 32.1002 168.712 30.9329 167.815C29.7656 166.918 29.5651 165.367 30.4652 164.196C31.3652 163.024 33.0129 162.894 34.0829 163.716Z" fill="#FFCF2D"/>
<path d="M47.5082 146.245C48.6755 147.142 48.876 148.693 47.9759 149.865C47.0759 151.036 45.5255 151.241 44.3582 150.344C43.1909 149.447 42.9904 147.896 43.8905 146.725C44.7155 145.651 46.4382 145.423 47.5082 146.245Z" fill="#FFCF2D"/>
<path d="M60.8583 128.873C62.0256 129.77 62.2261 131.321 61.326 132.492C60.426 133.664 58.8756 133.869 57.7083 132.972C56.541 132.075 56.3405 130.524 57.2406 129.353C58.1406 128.182 59.7883 128.051 60.8583 128.873Z" fill="#FFCF2D"/>
<path d="M74.2836 111.403C75.4509 112.3 75.6514 113.852 74.7513 115.023C73.8513 116.194 72.3008 116.399 71.1336 115.502C69.9663 114.605 69.7658 113.054 70.6659 111.883C71.5659 110.712 73.2136 110.581 74.2836 111.403Z" fill="#FFCF2D"/>
<path d="M87.7089 93.9336C88.8762 94.8307 89.0766 96.3818 88.1766 97.553C87.2766 98.7241 85.7261 98.9297 84.5589 98.0327C83.3916 97.1357 83.1911 95.5845 84.0911 94.4134C84.9162 93.3398 86.6389 93.1114 87.7089 93.9336Z" fill="#FFCF2D"/>
<path d="M101.134 76.4639C102.301 77.3609 102.502 78.9121 101.602 80.0833C100.702 81.2544 99.1514 81.46 97.9841 80.563C96.8169 79.6659 96.6164 78.1148 97.5164 76.9436C98.4165 75.7725 100.064 75.6416 101.134 76.4639Z" fill="#FFCF2D"/>
<path d="M114.484 59.0918C115.652 59.9889 115.852 61.54 114.952 62.7112C114.052 63.8823 112.502 64.0879 111.334 63.1909C110.167 62.2939 109.967 60.7427 110.867 59.5716C111.767 58.4004 113.414 58.2696 114.484 59.0918Z" fill="#FFCF2D"/>
<path d="M127.91 41.6221C129.077 42.5192 129.277 44.0703 128.377 45.2415C127.477 46.4126 125.927 46.6182 124.76 45.7212C123.592 44.8241 123.392 43.273 124.292 42.1018C125.192 40.9307 126.84 40.7998 127.91 41.6221Z" fill="#FFCF2D"/>
<path d="M141.335 24.1524C142.502 25.0494 142.703 26.6006 141.803 27.7717C140.903 28.9429 139.352 29.1485 138.185 28.2515C137.018 27.3544 136.817 25.8033 137.717 24.6321C138.542 23.5586 140.265 23.3301 141.335 24.1524Z" fill="#FFCF2D"/>
<path d="M48.5766 174.854C49.7439 175.751 49.9443 177.302 49.0443 178.473C48.1443 179.644 46.5938 179.85 45.4265 178.953C44.2593 178.056 44.0588 176.504 44.9588 175.333C45.8588 174.162 47.4093 173.957 48.5766 174.854Z" fill="#FFCF2D"/>
<path d="M62.0019 157.384C63.1692 158.281 63.3696 159.832 62.4696 161.003C61.5696 162.174 60.0191 162.38 58.8518 161.483C57.6845 160.586 57.4841 159.035 58.3841 157.864C59.2091 156.79 60.8346 156.487 62.0019 157.384Z" fill="#FFCF2D"/>
<path d="M75.352 140.012C76.5193 140.909 76.7197 142.46 75.8197 143.631C74.9197 144.802 73.3692 145.008 72.2019 144.111C71.0346 143.214 70.8342 141.663 71.7342 140.491C72.6342 139.32 74.1847 139.115 75.352 140.012Z" fill="#FFCF2D"/>
<path d="M88.7773 122.542C89.9446 123.439 90.145 124.99 89.245 126.161C88.345 127.333 86.7945 127.538 85.6272 126.641C84.4599 125.744 84.2595 124.193 85.1595 123.022C86.0595 121.851 87.61 121.645 88.7773 122.542Z" fill="#FFCF2D"/>
<path d="M102.203 105.071C103.37 105.968 103.57 107.52 102.67 108.691C101.77 109.862 100.22 110.067 99.0525 109.17C97.8852 108.273 97.6848 106.722 98.5848 105.551C99.4098 104.477 101.035 104.174 102.203 105.071Z" fill="#FFCF2D"/>
<path d="M115.628 87.6016C116.795 88.4986 116.996 90.0498 116.096 91.221C115.196 92.3921 113.645 92.5977 112.478 91.7007C111.311 90.8036 111.11 89.2525 112.01 88.0813C112.91 86.9102 114.461 86.7046 115.628 87.6016Z" fill="#FFCF2D"/>
<path d="M128.978 70.2295C130.145 71.1266 130.346 72.6777 129.446 73.8489C128.546 75.02 126.995 75.2256 125.828 74.3286C124.661 73.4316 124.46 71.8804 125.36 70.7093C126.26 69.5381 127.811 69.3325 128.978 70.2295Z" fill="#FFCF2D"/>
<path d="M142.403 52.7598C143.571 53.6568 143.771 55.208 142.871 56.3792C141.971 57.5503 140.42 57.7559 139.253 56.8589C138.086 55.9618 137.885 54.4107 138.785 53.2395C139.685 52.0684 141.236 51.8628 142.403 52.7598Z" fill="#FFCF2D"/>
<path d="M155.829 35.2901C156.996 36.1871 157.196 37.7383 156.296 38.9094C155.396 40.0806 153.846 40.2862 152.678 39.3892C151.511 38.4921 151.311 36.941 152.211 35.7698C153.036 34.6962 154.661 34.3931 155.829 35.2901Z" fill="#FFCF2D"/>
<path d="M5.1928 141.514C6.36008 142.411 6.56053 143.962 5.66052 145.133C4.7605 146.304 3.21003 146.51 2.04275 145.613C0.875462 144.716 0.675012 143.165 1.57503 141.993C2.47504 140.822 4.02552 140.617 5.1928 141.514Z" fill="#FFCF2D"/>
<path d="M18.6181 124.044C19.7854 124.941 19.9858 126.492 19.0858 127.663C18.1858 128.834 16.6353 129.04 15.468 128.143C14.3008 127.246 14.1003 125.695 15.0003 124.524C15.8253 123.45 17.4508 123.147 18.6181 124.044Z" fill="#FFCF2D"/>
<path d="M31.9682 106.672C33.1355 107.569 33.3359 109.12 32.4359 110.291C31.5359 111.462 29.9854 111.668 28.8181 110.771C27.6509 109.874 27.5254 108.225 28.3504 107.152C29.2504 105.98 30.8009 105.775 31.9682 106.672Z" fill="#FFCF2D"/>
<path d="M45.3935 89.2022C46.5608 90.0992 46.7612 91.6504 45.8612 92.8215C44.9612 93.9927 43.4107 94.1983 42.2434 93.3013C41.0761 92.4042 40.9507 90.7555 41.7757 89.6819C42.6007 88.6083 44.2262 88.3052 45.3935 89.2022Z" fill="#FFCF2D"/>
<path d="M58.8188 71.7325C59.9861 72.6295 60.1865 74.1806 59.2865 75.3518C58.3865 76.523 56.836 76.7286 55.6687 75.8315C54.5014 74.9345 54.301 73.3833 55.201 72.2122C56.026 71.1386 57.6515 70.8354 58.8188 71.7325Z" fill="#FFCF2D"/>
<path d="M72.2441 54.2618C73.4114 55.1588 73.6118 56.7099 72.7118 57.8811C71.8118 59.0523 70.2613 59.2579 69.094 58.3608C67.9267 57.4638 67.7263 55.9126 68.6263 54.7415C69.5263 53.5703 71.0768 53.3647 72.2441 54.2618Z" fill="#FFCF2D"/>
<path d="M85.5942 36.8897C86.7614 37.7867 86.9619 39.3379 86.0619 40.509C85.1619 41.6802 83.6114 41.8858 82.4441 40.9888C81.2768 40.0917 81.0764 38.5406 81.9764 37.3694C82.8764 36.1983 84.4269 35.9927 85.5942 36.8897Z" fill="#FFCF2D"/>
<path d="M99.0195 19.42C100.187 20.317 100.387 21.8682 99.4872 23.0393C98.5872 24.2105 97.0367 24.4161 95.8694 23.519C94.7021 22.622 94.5017 21.0708 95.4017 19.8997C96.3017 18.7285 97.8522 18.5229 99.0195 19.42Z" fill="#FFCF2D"/>
<path d="M112.445 1.95026C113.612 2.8473 113.812 4.39843 112.912 5.56959C112.012 6.74074 110.462 6.94634 109.295 6.0493C108.127 5.15227 107.927 3.60112 108.827 2.42996C109.652 1.3564 111.277 1.05322 112.445 1.95026Z" fill="#FFCF2D"/>
<path d="M19.6865 152.652C20.8537 153.549 21.0542 155.101 20.1542 156.272C19.2542 157.443 17.6064 157.574 16.5364 156.751C15.3691 155.854 15.1687 154.303 16.0687 153.132C16.9687 151.961 18.5192 151.755 19.6865 152.652Z" fill="#FFCF2D"/>
<path d="M33.1117 135.182C34.279 136.079 34.4795 137.63 33.5795 138.801C32.6794 139.972 31.129 140.178 29.9617 139.281C28.7944 138.384 28.594 136.833 29.494 135.661C30.319 134.588 31.9445 134.285 33.1117 135.182Z" fill="#FFCF2D"/>
<path d="M46.4618 117.81C47.6291 118.707 47.8296 120.258 46.9296 121.429C46.0295 122.6 44.4791 122.806 43.3118 121.909C42.1445 121.012 41.9441 119.46 42.8441 118.289C43.7441 117.118 45.2946 116.913 46.4618 117.81Z" fill="#FFCF2D"/>
<path d="M59.8871 100.34C61.0544 101.237 61.2549 102.788 60.3549 103.959C59.4548 105.13 57.9044 105.336 56.7371 104.439C55.5698 103.542 55.3693 101.991 56.2694 100.82C57.1694 99.6484 58.7199 99.4429 59.8871 100.34Z" fill="#FFCF2D"/>
<path d="M73.3124 82.8702C74.4797 83.7672 74.6802 85.3183 73.7801 86.4895C72.8801 87.6607 71.3297 87.8663 70.1624 86.9692C68.9951 86.0722 68.7946 84.521 69.6947 83.3499C70.5197 82.2763 72.1451 81.9731 73.3124 82.8702Z" fill="#FFCF2D"/>
<path d="M86.7377 65.4004C87.905 66.2975 88.1055 67.8486 87.2054 69.0198C86.3054 70.1909 84.7549 70.3965 83.5877 69.4995C82.4204 68.6025 82.2199 67.0513 83.1199 65.8802C84.02 64.709 85.5704 64.5034 86.7377 65.4004Z" fill="#FFCF2D"/>
<path d="M100.088 48.0284C101.255 48.9254 101.456 50.4766 100.556 51.6477C99.6555 52.8189 98.105 53.0245 96.9378 52.1274C95.7705 51.2304 95.57 49.6792 96.47 48.5081C97.3701 47.3369 98.9205 47.1313 100.088 48.0284Z" fill="#FFCF2D"/>
<path d="M113.513 30.5586C114.68 31.4557 114.881 33.0068 113.981 34.178C113.081 35.3491 111.53 35.5547 110.363 34.6577C109.196 33.7607 108.995 32.2095 109.895 31.0384C110.795 29.8672 112.346 29.6616 113.513 30.5586Z" fill="#FFCF2D"/>
<path d="M126.938 13.0889C128.106 13.986 128.306 15.5371 127.406 16.7083C126.506 17.8794 124.956 18.085 123.788 17.188C122.621 16.2909 122.421 14.7398 123.321 13.5686C124.146 12.4951 125.771 12.1919 126.938 13.0889Z" fill="#FFCF2D"/>
<path d="M62.9736 185.917C64.1408 186.814 64.3413 188.365 63.4413 189.536C62.5413 190.708 60.9908 190.913 59.8235 190.016C58.6562 189.119 58.4558 187.568 59.3558 186.397C60.2558 185.226 61.9036 185.095 62.9736 185.917Z" fill="#FFCF2D"/>
<path d="M76.3989 168.447C77.5661 169.344 77.7666 170.895 76.8666 172.067C75.9665 173.238 74.4161 173.443 73.2488 172.546C72.0815 171.649 71.8811 170.098 72.7811 168.927C73.6061 167.853 75.3288 167.625 76.3989 168.447Z" fill="#FFCF2D"/>
<path d="M89.749 151.075C90.9162 151.972 91.1167 153.523 90.2167 154.695C89.3167 155.866 87.7662 156.071 86.5989 155.174C85.4316 154.277 85.2312 152.726 86.1312 151.555C87.0312 150.384 88.6789 150.253 89.749 151.075Z" fill="#FFCF2D"/>
<path d="M103.174 133.606C104.342 134.503 104.542 136.054 103.642 137.225C102.742 138.396 101.191 138.602 100.024 137.705C98.8569 136.808 98.6565 135.256 99.5565 134.085C100.456 132.914 102.104 132.783 103.174 133.606Z" fill="#FFCF2D"/>
<path d="M116.6 116.136C117.767 117.033 117.967 118.584 117.067 119.755C116.167 120.926 114.617 121.132 113.449 120.235C112.282 119.338 112.082 117.787 112.982 116.616C113.807 115.542 115.53 115.314 116.6 116.136Z" fill="#FFCF2D"/>
<path d="M130.025 98.6651C131.192 99.5621 131.393 101.113 130.493 102.284C129.593 103.456 128.042 103.661 126.875 102.764C125.707 101.867 125.507 100.316 126.407 99.1448C127.307 97.9736 128.955 97.8428 130.025 98.6651Z" fill="#FFCF2D"/>
<path d="M143.375 81.293C144.542 82.19 144.743 83.7412 143.843 84.9124C142.943 86.0835 141.392 86.2891 140.225 85.3921C139.058 84.495 138.857 82.9439 139.757 81.7727C140.657 80.6016 142.305 80.4707 143.375 81.293Z" fill="#FFCF2D"/>
<path d="M156.8 63.8233C157.968 64.7203 158.168 66.2715 157.268 67.4426C156.368 68.6138 154.817 68.8194 153.65 67.9224C152.483 67.0253 152.282 65.4742 153.182 64.303C154.082 63.1318 155.73 63.001 156.8 63.8233Z" fill="#FFCF2D"/>
<path d="M170.226 46.3536C171.393 47.2506 171.593 48.8017 170.693 49.9729C169.793 51.1441 168.243 51.3497 167.075 50.4526C165.908 49.5556 165.708 48.0044 166.608 46.8333C167.433 45.7597 169.155 45.5313 170.226 46.3536Z" fill="#FFCF2D"/>
<path d="M77.4672 197.055C78.6345 197.952 78.8349 199.503 77.9349 200.674C77.0349 201.845 75.4844 202.051 74.3172 201.154C73.1499 200.257 72.9494 198.706 73.8494 197.534C74.7495 196.363 76.2999 196.158 77.4672 197.055Z" fill="#FFCF2D"/>
<path d="M90.8925 179.585C92.0598 180.482 92.2602 182.033 91.3602 183.204C90.4602 184.376 88.9097 184.581 87.7424 183.684C86.5752 182.787 86.3747 181.236 87.2747 180.065C88.0998 178.991 89.7252 178.688 90.8925 179.585Z" fill="#FFCF2D"/>
<path d="M104.243 162.213C105.41 163.11 105.61 164.661 104.71 165.832C103.81 167.003 102.26 167.209 101.093 166.312C99.9253 165.415 99.7248 163.864 100.625 162.693C101.525 161.521 103.075 161.316 104.243 162.213Z" fill="#FFCF2D"/>
<path d="M118.136 148.363C119.005 147.231 118.796 145.61 117.668 144.743C116.54 143.876 114.92 144.091 114.05 145.223C113.18 146.355 113.39 147.975 114.518 148.842C115.646 149.709 117.266 149.494 118.136 148.363Z" fill="#FFCF2D"/>
<path d="M131.093 127.273C132.26 128.171 132.461 129.722 131.561 130.893C130.661 132.064 129.11 132.27 127.943 131.373C126.776 130.476 126.575 128.924 127.475 127.753C128.3 126.68 129.926 126.376 131.093 127.273Z" fill="#FFCF2D"/>
<path d="M144.518 109.804C145.686 110.701 145.886 112.252 144.986 113.423C144.086 114.594 142.536 114.8 141.368 113.903C140.201 113.006 140.001 111.455 140.901 110.283C141.801 109.112 143.351 108.907 144.518 109.804Z" fill="#FFCF2D"/>
<path d="M157.869 92.4317C159.036 93.3287 159.236 94.8799 158.336 96.051C157.436 97.2222 155.886 97.4278 154.719 96.5307C153.551 95.6337 153.351 94.0826 154.251 92.9114C155.151 91.7402 156.701 91.5346 157.869 92.4317Z" fill="#FFCF2D"/>
<path d="M171.762 78.5813C172.631 77.4494 172.422 75.8289 171.294 74.962C170.166 74.095 168.546 74.3098 167.676 75.4417C166.806 76.5736 167.016 78.194 168.144 79.061C169.272 79.928 170.892 79.7132 171.762 78.5813Z" fill="#FFCF2D"/>
<path d="M184.719 57.4922C185.886 58.3893 186.087 59.9404 185.187 61.1116C184.287 62.2827 182.736 62.4883 181.569 61.5913C180.402 60.6943 180.201 59.1431 181.101 57.9719C181.926 56.8984 183.552 56.5952 184.719 57.4922Z" fill="#FFCF2D"/>
<path d="M91.9609 208.193C93.1282 209.09 93.3286 210.642 92.4286 211.813C91.5286 212.984 89.9781 213.19 88.8108 212.292C87.6435 211.395 87.4431 209.844 88.3431 208.673C89.2431 207.502 90.7936 207.296 91.9609 208.193Z" fill="#FFCF2D"/>
<path d="M105.386 190.724C106.553 191.621 106.754 193.172 105.854 194.343C104.954 195.514 103.403 195.72 102.236 194.823C101.069 193.926 100.868 192.375 101.768 191.203C102.593 190.13 104.219 189.827 105.386 190.724Z" fill="#FFCF2D"/>
<path d="M118.736 173.352C119.904 174.249 120.104 175.8 119.204 176.971C118.304 178.142 116.753 178.348 115.586 177.451C114.419 176.554 114.218 175.002 115.118 173.831C116.018 172.66 117.569 172.455 118.736 173.352Z" fill="#FFCF2D"/>
<path d="M132.162 155.882C133.329 156.779 133.529 158.33 132.629 159.501C131.729 160.672 130.179 160.878 129.012 159.981C127.844 159.084 127.644 157.533 128.544 156.362C129.444 155.19 130.994 154.985 132.162 155.882Z" fill="#FFCF2D"/>
<path d="M145.587 138.412C146.754 139.309 146.955 140.86 146.055 142.032C145.155 143.203 143.604 143.408 142.437 142.511C141.27 141.614 141.069 140.063 141.969 138.892C142.794 137.818 144.42 137.515 145.587 138.412Z" fill="#FFCF2D"/>
<path d="M159.012 120.941C160.179 121.839 160.38 123.39 159.48 124.561C158.58 125.732 157.029 125.938 155.862 125.041C154.695 124.143 154.494 122.592 155.394 121.421C156.294 120.25 157.845 120.044 159.012 120.941Z" fill="#FFCF2D"/>
<path d="M172.362 103.569C173.53 104.466 173.73 106.018 172.83 107.189C171.93 108.36 170.379 108.565 169.212 107.668C168.045 106.771 167.844 105.22 168.744 104.049C169.644 102.878 171.195 102.672 172.362 103.569Z" fill="#FFCF2D"/>
<path d="M185.788 86.0997C186.955 86.9967 187.155 88.5478 186.255 89.719C185.355 90.8902 183.805 91.0958 182.637 90.1987C181.47 89.3017 181.27 87.7505 182.17 86.5794C183.07 85.4082 184.62 85.2026 185.788 86.0997Z" fill="#FFCF2D"/>
<path d="M199.213 68.6299C200.38 69.527 200.581 71.0781 199.681 72.2493C198.781 73.4204 197.23 73.626 196.063 72.729C194.895 71.832 194.695 70.2808 195.595 69.1096C196.42 68.0361 198.046 67.7329 199.213 68.6299Z" fill="#FFCF2D"/>
<path d="M106.357 219.257C107.525 220.154 107.725 221.705 106.825 222.876C105.925 224.047 104.375 224.253 103.207 223.356C102.04 222.459 101.84 220.908 102.74 219.737C103.64 218.565 105.287 218.435 106.357 219.257Z" fill="#FFCF2D"/>
<path d="M119.783 201.787C120.95 202.684 121.15 204.235 120.25 205.407C119.35 206.578 117.8 206.783 116.633 205.886C115.465 204.989 115.265 203.438 116.165 202.267C116.99 201.193 118.713 200.965 119.783 201.787Z" fill="#FFCF2D"/>
<path d="M133.133 184.415C134.3 185.312 134.5 186.863 133.6 188.034C132.7 189.206 131.15 189.411 129.983 188.514C128.815 187.617 128.615 186.066 129.515 184.895C130.415 183.724 132.063 183.593 133.133 184.415Z" fill="#FFCF2D"/>
<path d="M146.558 166.945C147.725 167.842 147.926 169.394 147.026 170.565C146.126 171.736 144.575 171.941 143.408 171.044C142.241 170.147 142.04 168.596 142.94 167.425C143.84 166.254 145.488 166.123 146.558 166.945Z" fill="#FFCF2D"/>
<path d="M159.983 149.475C161.151 150.372 161.351 151.923 160.451 153.094C159.551 154.265 158.001 154.471 156.833 153.574C155.666 152.677 155.466 151.126 156.366 149.954C157.191 148.881 158.913 148.652 159.983 149.475Z" fill="#FFCF2D"/>
<path d="M173.409 132.005C174.576 132.902 174.776 134.453 173.876 135.624C172.976 136.795 171.426 137.001 170.259 136.104C169.091 135.207 168.891 133.656 169.791 132.485C170.691 131.313 172.339 131.183 173.409 132.005Z" fill="#FFCF2D"/>
<path d="M186.759 114.633C187.926 115.53 188.126 117.081 187.226 118.252C186.326 119.423 184.776 119.629 183.609 118.732C182.441 117.835 182.241 116.284 183.141 115.113C184.041 113.941 185.689 113.811 186.759 114.633Z" fill="#FFCF2D"/>
<path d="M200.184 97.1631C201.351 98.0602 201.552 99.6113 200.652 100.782C199.752 101.954 198.201 102.159 197.034 101.262C195.867 100.365 195.666 98.814 196.566 97.6429C197.466 96.4717 199.114 96.3408 200.184 97.1631Z" fill="#FFCF2D"/>
<path d="M213.609 79.6934C214.777 80.5905 214.977 82.1416 214.077 83.3127C213.177 84.4839 211.627 84.6895 210.459 83.7925C209.292 82.8954 209.092 81.3443 209.992 80.1731C210.817 79.0996 212.539 78.8711 213.609 79.6934Z" fill="#FFCF2D"/>
</g>
<defs>
<clipPath id="clip0_2234_9590">
<rect width="181.184" height="132.739" fill="white" transform="translate(0 144.043) rotate(-52.4584)"/>
</clipPath>
</defs>
</svg>
