<svg width="135" height="183" viewBox="0 0 135 183" fill="none" xmlns="http://www.w3.org/2000/svg">
<g opacity="0.8" clip-path="url(#clip0_2234_9590)">
<path d="M39.868 176.5C41.3401 176.51 42.4364 177.626 42.426 179.103C42.4156 180.58 41.3037 181.68 39.8316 181.67C38.3595 181.659 37.2632 180.544 37.2736 179.067C37.284 177.59 38.5185 176.49 39.868 176.5Z" fill="#FFCF2D"/>
<path d="M40.0228 154.468C41.4949 154.478 42.5912 155.594 42.5807 157.071C42.5703 158.548 41.4585 159.648 39.9863 159.637C38.5142 159.627 37.418 158.511 37.4284 157.034C37.4379 155.68 38.6733 154.458 40.0228 154.468Z" fill="#FFCF2D"/>
<path d="M40.1771 132.56C41.6492 132.57 42.7455 133.685 42.7351 135.162C42.7246 136.639 41.6128 137.739 40.1406 137.729C38.6685 137.719 37.5723 136.603 37.5827 135.126C37.5931 133.649 38.8276 132.55 40.1771 132.56Z" fill="#FFCF2D"/>
<path d="M40.3323 110.527C41.8044 110.538 42.9007 111.653 42.8903 113.13C42.8799 114.607 41.768 115.707 40.2959 115.697C38.8238 115.686 37.7275 114.571 37.7379 113.094C37.7483 111.617 38.9829 110.518 40.3323 110.527Z" fill="#FFCF2D"/>
<path d="M40.4876 88.4951C41.9597 88.5055 43.056 89.621 43.0456 91.098C43.0352 92.575 41.9233 93.675 40.4512 93.6646C38.9791 93.6543 37.8828 92.5387 37.8932 91.0617C37.9027 89.7078 39.1382 88.4856 40.4876 88.4951Z" fill="#FFCF2D"/>
<path d="M40.6429 66.4629C42.115 66.4733 43.2113 67.5888 43.2009 69.0658C43.1905 70.5428 42.0786 71.6428 40.6065 71.6324C39.1344 71.622 38.0381 70.5065 38.0485 69.0295C38.0589 67.5525 39.2934 66.4534 40.6429 66.4629Z" fill="#FFCF2D"/>
<path d="M40.7967 44.5547C42.2688 44.565 43.3651 45.6806 43.3547 47.1576C43.3443 48.6346 42.2324 49.7346 40.7603 49.7242C39.2882 49.7138 38.1919 48.5983 38.2023 47.1213C38.2127 45.6443 39.4472 44.5452 40.7967 44.5547Z" fill="#FFCF2D"/>
<path d="M40.952 22.5225C42.4241 22.5328 43.5204 23.6484 43.5099 25.1254C43.4995 26.6024 42.3877 27.7023 40.9155 27.692C39.4434 27.6816 38.3472 26.5661 38.3576 25.0891C38.368 23.6121 39.6025 22.513 40.952 22.5225Z" fill="#FFCF2D"/>
<path d="M41.1072 0.490255C42.5793 0.500622 43.6756 1.61613 43.6652 3.09313C43.6548 4.57013 42.5429 5.67011 41.0708 5.65974C39.5987 5.64938 38.5024 4.53385 38.5128 3.05685C38.5224 1.70293 39.7578 0.480752 41.1072 0.490255Z" fill="#FFCF2D"/>
<path d="M58.1463 176.629C59.6184 176.639 60.7147 177.755 60.7043 179.232C60.6939 180.709 59.582 181.809 58.1099 181.798C56.6378 181.788 55.5415 180.673 55.5519 179.196C55.5623 177.719 56.6742 176.619 58.1463 176.629Z" fill="#FFCF2D"/>
<path d="M58.3016 154.597C59.7737 154.607 60.87 155.723 60.8596 157.2C60.8492 158.677 59.7373 159.777 58.2652 159.766C56.7931 159.756 55.6968 158.64 55.7072 157.163C55.7167 155.809 56.8295 154.586 58.3016 154.597Z" fill="#FFCF2D"/>
<path d="M58.4559 132.687C59.928 132.698 61.0243 133.813 61.0139 135.29C61.0035 136.767 59.8916 137.867 58.4195 137.857C56.9473 137.847 55.8511 136.731 55.8615 135.254C55.8719 133.777 56.9838 132.677 58.4559 132.687Z" fill="#FFCF2D"/>
<path d="M58.6111 110.655C60.0833 110.666 61.1795 111.781 61.1691 113.258C61.1587 114.735 60.0468 115.835 58.5747 115.825C57.1026 115.814 56.0063 114.699 56.0167 113.222C56.0271 111.745 57.139 110.645 58.6111 110.655Z" fill="#FFCF2D"/>
<path d="M58.7659 88.624C60.238 88.6344 61.3343 89.7499 61.3239 91.2269C61.3135 92.7039 60.2016 93.8039 58.7295 93.7935C57.2574 93.7832 56.1611 92.6676 56.1715 91.1906C56.1811 89.8367 57.2938 88.6137 58.7659 88.624Z" fill="#FFCF2D"/>
<path d="M58.9212 66.5918C60.3933 66.6022 61.4896 67.7177 61.4792 69.1947C61.4688 70.6717 60.3569 71.7717 58.8848 71.7613C57.4127 71.7509 56.3164 70.6354 56.3268 69.1584C56.3372 67.6814 57.4491 66.5814 58.9212 66.5918Z" fill="#FFCF2D"/>
<path d="M59.0755 44.6826C60.5476 44.693 61.6439 45.8085 61.6335 47.2855C61.6231 48.7625 60.5112 49.8625 59.0391 49.8521C57.567 49.8418 56.4707 48.7262 56.4811 47.2492C56.4915 45.7722 57.6034 44.6723 59.0755 44.6826Z" fill="#FFCF2D"/>
<path d="M59.2308 22.6514C60.7029 22.6617 61.7992 23.7773 61.7888 25.2543C61.7784 26.7313 60.6665 27.8312 59.1944 27.8209C57.7223 27.8105 56.626 26.695 56.6364 25.218C56.6468 23.741 57.7587 22.641 59.2308 22.6514Z" fill="#FFCF2D"/>
<path d="M59.386 0.619146C60.8582 0.629513 61.9544 1.74503 61.944 3.22203C61.9336 4.69903 60.8218 5.79902 59.3496 5.78865C57.8775 5.77828 56.7812 4.66275 56.7916 3.18575C56.8012 1.83183 57.9139 0.608779 59.386 0.619146Z" fill="#FFCF2D"/>
<path d="M3.43291 176.243C4.90503 176.254 6.00131 177.369 5.99091 178.846C5.98051 180.323 4.86862 181.423 3.39651 181.413C1.9244 181.402 0.828113 180.287 0.838515 178.81C0.848916 177.333 1.9608 176.233 3.43291 176.243Z" fill="#FFCF2D"/>
<path d="M3.58819 154.211C5.0603 154.221 6.15658 155.337 6.14618 156.814C6.13578 158.291 5.0239 159.391 3.55178 159.38C2.07967 159.37 0.983387 158.255 0.993788 156.778C1.00332 155.424 2.11607 154.201 3.58819 154.211Z" fill="#FFCF2D"/>
<path d="M3.74248 132.303C5.2146 132.313 6.31088 133.429 6.30048 134.906C6.29008 136.383 5.17819 137.483 3.70608 137.472C2.23397 137.462 1.13855 136.223 1.14808 134.869C1.15849 133.392 2.27037 132.292 3.74248 132.303Z" fill="#FFCF2D"/>
<path d="M3.89727 110.271C5.36938 110.281 6.46566 111.396 6.45526 112.873C6.44486 114.35 5.33298 115.45 3.86086 115.44C2.38875 115.43 1.29334 114.191 1.30287 112.837C1.3124 111.483 2.42516 110.26 3.89727 110.271Z" fill="#FFCF2D"/>
<path d="M4.05254 88.2383C5.52465 88.2486 6.62094 89.3642 6.61054 90.8412C6.60014 92.3182 5.48825 93.4182 4.01614 93.4078C2.54403 93.3974 1.44774 92.2819 1.45814 90.8049C1.46768 89.451 2.58043 88.2279 4.05254 88.2383Z" fill="#FFCF2D"/>
<path d="M4.20782 66.2061C5.67993 66.2164 6.77621 67.3319 6.76581 68.8089C6.75541 70.286 5.64352 71.3859 4.17141 71.3756C2.6993 71.3652 1.60302 70.2497 1.61342 68.7727C1.62382 67.2957 2.7357 66.1957 4.20782 66.2061Z" fill="#FFCF2D"/>
<path d="M4.36211 44.2979C5.83423 44.3082 6.93051 45.4237 6.92011 46.9007C6.90971 48.3777 5.79782 49.4777 4.32571 49.4674C2.8536 49.457 1.75731 48.3415 1.76771 46.8645C1.77812 45.3875 2.89 44.2875 4.36211 44.2979Z" fill="#FFCF2D"/>
<path d="M4.51739 22.2656C5.9895 22.276 7.08578 23.3915 7.07538 24.8685C7.06498 26.3455 5.95309 27.4455 4.48098 27.4351C3.00887 27.4248 1.91259 26.3092 1.92299 24.8322C1.93339 23.3552 3.04527 22.2552 4.51739 22.2656Z" fill="#FFCF2D"/>
<path d="M4.67217 0.233419C6.14428 0.243786 7.24057 1.3593 7.23017 2.8363C7.21976 4.31329 6.10788 5.41327 4.63577 5.40291C3.16365 5.39254 2.06737 4.27701 2.07777 2.80001C2.08731 1.4461 3.20006 0.223052 4.67217 0.233419Z" fill="#FFCF2D"/>
<path d="M21.7117 176.372C23.1838 176.382 24.2801 177.498 24.2697 178.975C24.2593 180.452 23.0248 181.551 21.6753 181.542C20.2032 181.531 19.1069 180.416 19.1173 178.939C19.1277 177.462 20.2396 176.362 21.7117 176.372Z" fill="#FFCF2D"/>
<path d="M21.867 154.34C23.3391 154.35 24.4354 155.466 24.425 156.943C24.4146 158.42 23.3027 159.52 21.8306 159.509C20.3585 159.499 19.2622 158.383 19.2726 156.906C19.2821 155.553 20.3949 154.329 21.867 154.34Z" fill="#FFCF2D"/>
<path d="M22.0213 132.432C23.4934 132.442 24.5897 133.558 24.5793 135.035C24.5689 136.512 23.457 137.612 21.9849 137.601C20.5128 137.591 19.4165 136.475 19.4269 134.998C19.4373 133.521 20.5492 132.421 22.0213 132.432Z" fill="#FFCF2D"/>
<path d="M22.1766 110.399C23.6487 110.41 24.745 111.525 24.7346 113.002C24.7242 114.479 23.6123 115.579 22.1402 115.569C20.668 115.559 19.5718 114.443 19.5822 112.966C19.5926 111.489 20.7045 110.389 22.1766 110.399Z" fill="#FFCF2D"/>
<path d="M22.3314 88.3672C23.8035 88.3776 24.8997 89.4931 24.8893 90.9701C24.8789 92.4471 23.7671 93.5471 22.2949 93.5367C20.8228 93.5263 19.7266 92.4108 19.737 90.9338C19.7465 89.5799 20.8592 88.3568 22.3314 88.3672Z" fill="#FFCF2D"/>
<path d="M22.4866 66.335C23.9587 66.3453 25.055 67.4609 25.0446 68.9379C25.0342 70.4149 23.9223 71.5148 22.4502 71.5045C20.9781 71.4941 19.8818 70.3786 19.8922 68.9016C19.9026 67.4246 21.0145 66.3246 22.4866 66.335Z" fill="#FFCF2D"/>
<path d="M22.6409 44.4268C24.113 44.4371 25.2093 45.5527 25.1989 47.0297C25.1885 48.5067 24.0766 49.6066 22.6045 49.5963C21.1324 49.5859 20.0361 48.4704 20.0465 46.9934C20.0569 45.5164 21.1688 44.4164 22.6409 44.4268Z" fill="#FFCF2D"/>
<path d="M22.7962 22.3945C24.2683 22.4049 25.3646 23.5204 25.3542 24.9974C25.3438 26.4744 24.2319 27.5744 22.7598 27.564C21.2877 27.5537 20.1914 26.4381 20.2018 24.9611C20.2122 23.4841 21.3241 22.3842 22.7962 22.3945Z" fill="#FFCF2D"/>
<path d="M22.951 0.36231C24.4231 0.372677 25.5194 1.48819 25.509 2.96519C25.4986 4.4422 24.3867 5.54218 22.9146 5.53181C21.4425 5.52145 20.3462 4.40591 20.3566 2.92891C20.3661 1.57499 21.4789 0.351943 22.951 0.36231Z" fill="#FFCF2D"/>
<path d="M76.3025 176.756C77.7747 176.766 78.8709 177.882 78.8605 179.359C78.8501 180.836 77.7382 181.936 76.2661 181.925C74.794 181.915 73.6977 180.799 73.7081 179.322C73.7185 177.845 74.9531 176.746 76.3025 176.756Z" fill="#FFCF2D"/>
<path d="M76.4578 154.725C77.9299 154.735 79.0262 155.85 79.0158 157.328C79.0054 158.805 77.8935 159.904 76.4214 159.894C74.9493 159.884 73.853 158.768 73.8634 157.291C73.873 155.937 75.1084 154.715 76.4578 154.725Z" fill="#FFCF2D"/>
<path d="M76.6121 132.815C78.0842 132.826 79.1805 133.941 79.1701 135.418C79.1597 136.895 78.0478 137.995 76.5757 137.985C75.1036 137.975 74.0073 136.859 74.0177 135.382C74.0281 133.905 75.2627 132.806 76.6121 132.815Z" fill="#FFCF2D"/>
<path d="M76.7674 110.783C78.2395 110.794 79.3358 111.909 79.3254 113.386C79.315 114.863 78.2031 115.963 76.731 115.953C75.2589 115.942 74.1626 114.827 74.173 113.35C74.1834 111.873 75.4179 110.774 76.7674 110.783Z" fill="#FFCF2D"/>
<path d="M76.9222 88.752C78.3943 88.7623 79.4906 89.8778 79.4802 91.3548C79.4698 92.8319 78.3579 93.9318 76.8858 93.9215C75.4137 93.9111 74.3174 92.7956 74.3278 91.3186C74.3373 89.9646 75.5727 88.7424 76.9222 88.752Z" fill="#FFCF2D"/>
<path d="M77.0774 66.7197C78.5496 66.7301 79.6458 67.8456 79.6354 69.3226C79.625 70.7996 78.5132 71.8996 77.041 71.8892C75.5689 71.8789 74.4726 70.7633 74.483 69.2863C74.4934 67.8093 75.728 66.7102 77.0774 66.7197Z" fill="#FFCF2D"/>
<path d="M77.2317 44.8105C78.7039 44.8209 79.8001 45.9364 79.7897 47.4134C79.7793 48.8904 78.6674 49.9904 77.1953 49.9801C75.7232 49.9697 74.6269 48.8542 74.6373 47.3771C74.6477 45.9001 75.8823 44.801 77.2317 44.8105Z" fill="#FFCF2D"/>
<path d="M77.387 22.7793C78.8591 22.7897 79.9554 23.9052 79.945 25.3822C79.9346 26.8592 78.8227 27.9592 77.3506 27.9488C75.8785 27.9384 74.7822 26.8229 74.7926 25.3459C74.803 23.8689 76.0376 22.7698 77.387 22.7793Z" fill="#FFCF2D"/>
<path d="M77.5423 0.747076C79.0144 0.757443 80.1107 1.87296 80.1003 3.34996C80.0899 4.82696 78.978 5.92695 77.5059 5.91658C76.0338 5.90621 74.9375 4.79068 74.9479 3.31368C74.9574 1.95976 76.1928 0.737573 77.5423 0.747076Z" fill="#FFCF2D"/>
<path d="M94.5813 176.885C96.0535 176.895 97.1497 178.011 97.1393 179.488C97.1289 180.965 96.0171 182.065 94.5449 182.054C93.0728 182.044 91.9766 180.928 91.987 179.451C91.9974 177.974 93.1092 176.874 94.5813 176.885Z" fill="#FFCF2D"/>
<path d="M94.7361 154.853C96.2082 154.863 97.3045 155.978 97.2941 157.455C97.2837 158.932 96.1718 160.032 94.6997 160.022C93.2276 160.012 92.1313 158.896 92.1417 157.419C92.1513 156.065 93.264 154.842 94.7361 154.853Z" fill="#FFCF2D"/>
<path d="M94.8904 132.944C96.3625 132.955 97.4588 134.07 97.4484 135.547C97.438 137.024 96.3261 138.124 94.854 138.114C93.3819 138.103 92.2856 136.988 92.296 135.511C92.3064 134.034 93.4183 132.934 94.8904 132.944Z" fill="#FFCF2D"/>
<path d="M97.6037 113.515C97.6137 112.087 96.4685 110.922 95.0457 110.912C93.6229 110.902 92.4614 112.051 92.4513 113.479C92.4413 114.906 93.5865 116.072 95.0093 116.082C96.4321 116.092 97.5936 114.943 97.6037 113.515Z" fill="#FFCF2D"/>
<path d="M95.201 88.8799C96.6731 88.8902 97.7694 90.0058 97.759 91.4828C97.7486 92.9598 96.6367 94.0598 95.1646 94.0494C93.6925 94.039 92.5962 92.9235 92.6066 91.4465C92.6161 90.0926 93.7289 88.8695 95.201 88.8799Z" fill="#FFCF2D"/>
<path d="M95.3562 66.8486C96.8284 66.859 97.9246 67.9745 97.9142 69.4515C97.9038 70.9285 96.792 72.0285 95.3198 72.0181C93.8477 72.0078 92.7515 70.8922 92.7619 69.4152C92.7723 67.9382 93.8841 66.8383 95.3562 66.8486Z" fill="#FFCF2D"/>
<path d="M95.5105 44.9394C96.9827 44.9498 98.0789 46.0653 98.0685 47.5423C98.0581 49.0193 96.9463 50.1193 95.4741 50.109C94.002 50.0986 92.9058 48.9831 92.9162 47.5061C92.9266 46.0291 94.0384 44.9291 95.5105 44.9394Z" fill="#FFCF2D"/>
<path d="M98.2233 25.5101C98.2334 24.0826 97.0881 22.9172 95.6653 22.9072C94.2425 22.8972 93.081 24.0463 93.0709 25.4738C93.0609 26.9014 94.2061 28.0667 95.6289 28.0767C97.0517 28.0868 98.2133 26.9376 98.2233 25.5101Z" fill="#FFCF2D"/>
<path d="M95.8206 0.875005C97.2927 0.885372 98.389 2.00089 98.3786 3.47789C98.3682 4.95489 97.2563 6.05488 95.7842 6.04451C94.3121 6.03414 93.2158 4.91861 93.2262 3.44161C93.2357 2.08769 94.3485 0.864639 95.8206 0.875005Z" fill="#FFCF2D"/>
<path d="M112.86 177.014C114.332 177.024 115.429 178.14 115.418 179.617C115.408 181.094 114.296 182.194 112.824 182.183C111.352 182.173 110.255 181.057 110.266 179.58C110.276 178.103 111.388 177.003 112.86 177.014Z" fill="#FFCF2D"/>
<path d="M113.015 154.981C114.487 154.992 115.583 156.107 115.573 157.584C115.563 159.061 114.451 160.161 112.979 160.151C111.506 160.141 110.41 159.025 110.421 157.548C110.43 156.194 111.543 154.971 113.015 154.981Z" fill="#FFCF2D"/>
<path d="M113.169 133.073C114.641 133.084 115.738 134.199 115.727 135.676C115.717 137.153 114.605 138.253 113.133 138.243C111.661 138.232 110.564 137.117 110.575 135.64C110.585 134.163 111.697 133.063 113.169 133.073Z" fill="#FFCF2D"/>
<path d="M113.325 111.041C114.797 111.051 115.893 112.167 115.883 113.644C115.872 115.121 114.76 116.221 113.288 116.211C111.816 116.2 110.72 115.085 110.73 113.608C110.741 112.131 111.852 111.031 113.325 111.041Z" fill="#FFCF2D"/>
<path d="M113.48 89.0088C114.952 89.0192 116.048 90.1347 116.038 91.6117C116.027 93.0887 114.916 94.1887 113.443 94.1783C111.971 94.1679 110.875 93.0524 110.885 91.5754C110.895 90.2215 112.008 88.9984 113.48 89.0088Z" fill="#FFCF2D"/>
<path d="M113.635 66.9766C115.107 66.9869 116.203 68.1025 116.193 69.5795C116.183 71.0565 115.071 72.1564 113.599 72.1461C112.127 72.1357 111.03 71.0202 111.041 69.5432C111.051 68.0662 112.163 66.9662 113.635 66.9766Z" fill="#FFCF2D"/>
<path d="M113.789 45.0684C115.261 45.0787 116.358 46.1943 116.347 47.6713C116.337 49.1483 115.225 50.2482 113.753 50.2379C112.281 50.2275 111.185 49.112 111.195 47.635C111.205 46.158 112.317 45.058 113.789 45.0684Z" fill="#FFCF2D"/>
<path d="M113.944 23.0361C115.416 23.0465 116.513 24.162 116.502 25.639C116.492 27.116 115.38 28.216 113.908 28.2056C112.436 28.1953 111.339 27.0797 111.35 25.6027C111.36 24.1257 112.472 23.0258 113.944 23.0361Z" fill="#FFCF2D"/>
<path d="M114.099 1.00391C115.572 1.01428 116.668 2.12979 116.657 3.6068C116.647 5.0838 115.535 6.18378 114.063 6.17342C112.591 6.16305 111.495 5.04751 111.505 3.57051C111.515 2.21659 112.627 0.993545 114.099 1.00391Z" fill="#FFCF2D"/>
<path d="M131.016 177.142C132.488 177.152 133.584 178.267 133.574 179.744C133.564 181.222 132.452 182.321 130.98 182.311C129.507 182.301 128.411 181.185 128.422 179.708C128.432 178.231 129.666 177.132 131.016 177.142Z" fill="#FFCF2D"/>
<path d="M131.171 155.109C132.643 155.12 133.74 156.235 133.729 157.712C133.719 159.189 132.607 160.289 131.135 160.279C129.663 160.269 128.566 159.153 128.577 157.676C128.586 156.322 129.822 155.1 131.171 155.109Z" fill="#FFCF2D"/>
<path d="M131.325 133.201C132.798 133.212 133.894 134.327 133.883 135.804C133.873 137.281 132.761 138.381 131.289 138.371C129.817 138.36 128.721 137.245 128.731 135.768C128.741 134.291 129.976 133.192 131.325 133.201Z" fill="#FFCF2D"/>
<path d="M131.481 111.169C132.953 111.179 134.049 112.295 134.039 113.772C134.028 115.249 132.916 116.349 131.444 116.338C129.972 116.328 128.876 115.213 128.886 113.736C128.897 112.259 130.131 111.159 131.481 111.169Z" fill="#FFCF2D"/>
<path d="M131.636 89.1367C133.108 89.1471 134.204 90.2626 134.194 91.7396C134.183 93.2166 133.071 94.3166 131.599 94.3062C130.127 94.2959 129.031 93.1803 129.041 91.7033C129.051 90.3494 130.286 89.1272 131.636 89.1367Z" fill="#FFCF2D"/>
<path d="M131.791 67.1045C133.263 67.1149 134.359 68.2304 134.349 69.7074C134.338 71.1844 133.227 72.2844 131.754 72.274C130.282 72.2636 129.186 71.1481 129.196 69.6711C129.207 68.1941 130.441 67.095 131.791 67.1045Z" fill="#FFCF2D"/>
<path d="M131.945 45.1963C133.417 45.2066 134.513 46.3222 134.503 47.7992C134.493 49.2762 133.381 50.3762 131.909 50.3658C130.437 50.3554 129.34 49.2399 129.351 47.7629C129.361 46.2859 130.596 45.1868 131.945 45.1963Z" fill="#FFCF2D"/>
<path d="M132.1 23.1641C133.573 23.1744 134.669 24.29 134.658 25.767C134.648 27.244 133.536 28.3439 132.064 28.3336C130.592 28.3232 129.496 27.2077 129.506 25.7307C129.516 24.2537 130.751 23.1545 132.1 23.1641Z" fill="#FFCF2D"/>
<path d="M132.256 1.13184C133.728 1.14221 134.824 2.25772 134.814 3.73473C134.803 5.21173 133.691 6.31171 132.219 6.30134C130.747 6.29098 129.651 5.17544 129.661 3.69844C129.671 2.34452 130.906 1.12234 132.256 1.13184Z" fill="#FFCF2D"/>
</g>
<defs>
<clipPath id="clip0_2234_9590">
<rect width="181.184" height="132.739" fill="white" transform="translate(0.820312 181.395) rotate(-89.5965)"/>
</clipPath>
</defs>
</svg>
